<svg width="35" height="35" viewBox="0 0 168 168" xmlns="http://www.w3.org/2000/svg" fill="#FFFFFF">
  <path d="M84,0C37.7,0,0,37.7,0,84s37.7,84,84,84s84-37.7,84-84S130.3,0,84,0z M122.2,121.1c-1.7,2.8-5.3,3.7-8.1,2
    c-22.2-13.5-50.2-16.5-83.1-9.1c-3.2,0.7-6.4-1.4-7.1-4.6c-0.7-3.2,1.4-6.4,4.6-7.1c36.5-8.2,68.2-5,93.1,10.2
    C123,114.7,123.9,118.3,122.2,121.1z M133.3,95.2c-2.1,3.4-6.6,4.5-10,2.4c-25.4-15.6-64.2-20.1-94.2-11.1
    c-3.8,1.1-7.8-1-8.9-4.8c-1.1-3.8,1-7.8,4.8-8.9c34.7-10.1,78.3-5.2,108.7,12.6C134.3,87.3,135.4,91.8,133.3,95.2z M136.6,67.9
    c-30.1-17.8-79.9-19.5-108-10.8c-4.4,1.4-9.1-1-10.5-5.4c-1.4-4.4,1-9.1,5.4-10.5c32.4-10.3,87.8-8.3,122.7,12
    c4,2.4,5.3,7.6,2.9,11.6C146.7,68.9,141.1,70.3,136.6,67.9z"/>
</svg>
